<?xml version="1.0" encoding="UTF-8" ?>
<svg version="1.1" width="16" height="16" xmlns="http://www.w3.org/2000/svg">
<rect x="2" y="0" width="1" height="1" fill="#597DCE" />
<rect x="1" y="1" width="1" height="1" fill="#6DC2CA" />
<rect x="0" y="2" width="1" height="1" fill="#6DC2CA" />
<rect x="0" y="3" width="1" height="1" fill="#6DC2CA" />
<rect x="9" y="3" width="1" height="1" fill="#597DCE" />
<rect x="0" y="4" width="1" height="1" fill="#6DC2CA" />
<rect x="9" y="4" width="1" height="1" fill="#6DC2CA" />
<rect x="0" y="5" width="1" height="1" fill="#597DCE" />
<rect x="1" y="5" width="1" height="1" fill="#6DC2CA" />
<rect x="8" y="5" width="1" height="1" fill="#597DCE" />
<rect x="9" y="5" width="1" height="1" fill="#6DC2CA" />
<rect x="1" y="6" width="1" height="1" fill="#597DCE" />
<rect x="2" y="6" width="1" height="1" fill="#6DC2CA" />
<rect x="3" y="6" width="1" height="1" fill="#6DC2CA" />
<rect x="4" y="6" width="1" height="1" fill="#6DC2CA" />
<rect x="5" y="6" width="1" height="1" fill="#6DC2CA" />
<rect x="6" y="6" width="1" height="1" fill="#6DC2CA" />
<rect x="7" y="6" width="1" height="1" fill="#6DC2CA" />
<rect x="8" y="6" width="1" height="1" fill="#6DC2CA" />
<rect x="9" y="6" width="1" height="1" fill="#6DC2CA" />
<rect x="10" y="6" width="1" height="1" fill="#6DC2CA" />
<rect x="11" y="6" width="1" height="1" fill="#6DC2CA" />
<rect x="12" y="6" width="1" height="1" fill="#6DC2CA" />
<rect x="13" y="6" width="1" height="1" fill="#6DC2CA" />
<rect x="14" y="6" width="1" height="1" fill="#6DC2CA" />
<rect x="15" y="6" width="1" height="1" fill="#6DC2CA" />
<rect x="0" y="7" width="1" height="1" fill="#597DCE" />
<rect x="1" y="7" width="1" height="1" fill="#30346D" />
<rect x="2" y="7" width="1" height="1" fill="#597DCE" />
<rect x="3" y="7" width="1" height="1" fill="#6DC2CA" />
<rect x="4" y="7" width="1" height="1" fill="#6DC2CA" />
<rect x="5" y="7" width="1" height="1" fill="#6DC2CA" />
<rect x="6" y="7" width="1" height="1" fill="#6DC2CA" />
<rect x="7" y="7" width="1" height="1" fill="#6DC2CA" />
<rect x="8" y="7" width="1" height="1" fill="#6DC2CA" />
<rect x="9" y="7" width="1" height="1" fill="#6DC2CA" />
<rect x="10" y="7" width="1" height="1" fill="#6DC2CA" />
<rect x="11" y="7" width="1" height="1" fill="#597DCE" />
<rect x="12" y="7" width="1" height="1" fill="#6DC2CA" />
<rect x="13" y="7" width="1" height="1" fill="#442434" />
<rect x="14" y="7" width="1" height="1" fill="#6DC2CA" />
<rect x="15" y="7" width="1" height="1" fill="#597DCE" />
<rect x="3" y="8" width="1" height="1" fill="#30346D" />
<rect x="6" y="8" width="1" height="1" fill="#597DCE" />
<rect x="7" y="8" width="1" height="1" fill="#597DCE" />
<rect x="8" y="8" width="1" height="1" fill="#597DCE" />
<rect x="9" y="8" width="1" height="1" fill="#597DCE" />
<rect x="10" y="8" width="1" height="1" fill="#6DC2CA" />
<rect x="11" y="8" width="1" height="1" fill="#6DC2CA" />
<rect x="12" y="8" width="1" height="1" fill="#597DCE" />
<rect x="13" y="8" width="1" height="1" fill="#597DCE" />
<rect x="14" y="8" width="1" height="1" fill="#30346D" />
<rect x="10" y="9" width="1" height="1" fill="#6DC2CA" />
<rect x="11" y="9" width="1" height="1" fill="#6DC2CA" />
<rect x="11" y="10" width="1" height="1" fill="#6DC2CA" />
</svg>