<?xml version="1.0" encoding="UTF-8" ?>
<svg version="1.1" width="24" height="24" xmlns="http://www.w3.org/2000/svg">
<rect x="2" y="3" width="1" height="1" fill="#6DC2CA" />
<rect x="1" y="4" width="1" height="1" fill="#6DC2CA" />
<rect x="0" y="5" width="1" height="1" fill="#6DC2CA" />
<rect x="0" y="6" width="1" height="1" fill="#6DC2CA" />
<rect x="0" y="7" width="1" height="1" fill="#6DC2CA" />
<rect x="1" y="7" width="1" height="1" fill="#30346D" />
<rect x="12" y="7" width="1" height="1" fill="#597DCE" />
<rect x="0" y="8" width="1" height="1" fill="#6DC2CA" />
<rect x="1" y="8" width="1" height="1" fill="#30346D" />
<rect x="11" y="8" width="1" height="1" fill="#597DCE" />
<rect x="12" y="8" width="1" height="1" fill="#6DC2CA" />
<rect x="0" y="9" width="1" height="1" fill="#597DCE" />
<rect x="1" y="9" width="1" height="1" fill="#6DC2CA" />
<rect x="2" y="9" width="1" height="1" fill="#30346D" />
<rect x="10" y="9" width="1" height="1" fill="#30346D" />
<rect x="11" y="9" width="1" height="1" fill="#6DC2CA" />
<rect x="12" y="9" width="1" height="1" fill="#6DC2CA" />
<rect x="1" y="10" width="1" height="1" fill="#597DCE" />
<rect x="2" y="10" width="1" height="1" fill="#6DC2CA" />
<rect x="3" y="10" width="1" height="1" fill="#30346D" />
<rect x="4" y="10" width="1" height="1" fill="#30346D" />
<rect x="5" y="10" width="1" height="1" fill="#30346D" />
<rect x="6" y="10" width="1" height="1" fill="#30346D" />
<rect x="7" y="10" width="1" height="1" fill="#30346D" />
<rect x="8" y="10" width="1" height="1" fill="#6DC2CA" />
<rect x="9" y="10" width="1" height="1" fill="#6DC2CA" />
<rect x="10" y="10" width="1" height="1" fill="#6DC2CA" />
<rect x="11" y="10" width="1" height="1" fill="#6DC2CA" />
<rect x="12" y="10" width="1" height="1" fill="#6DC2CA" />
<rect x="13" y="10" width="1" height="1" fill="#6DC2CA" />
<rect x="14" y="10" width="1" height="1" fill="#6DC2CA" />
<rect x="15" y="10" width="1" height="1" fill="#6DC2CA" />
<rect x="16" y="10" width="1" height="1" fill="#597DCE" />
<rect x="17" y="10" width="1" height="1" fill="#597DCE" />
<rect x="18" y="10" width="1" height="1" fill="#597DCE" />
<rect x="19" y="10" width="1" height="1" fill="#597DCE" />
<rect x="20" y="10" width="1" height="1" fill="#597DCE" />
<rect x="21" y="10" width="1" height="1" fill="#597DCE" />
<rect x="22" y="10" width="1" height="1" fill="#597DCE" />
<rect x="23" y="10" width="1" height="1" fill="#30346D" />
<rect x="2" y="11" width="1" height="1" fill="#30346D" />
<rect x="3" y="11" width="1" height="1" fill="#597DCE" />
<rect x="4" y="11" width="1" height="1" fill="#6DC2CA" />
<rect x="5" y="11" width="1" height="1" fill="#6DC2CA" />
<rect x="6" y="11" width="1" height="1" fill="#6DC2CA" />
<rect x="7" y="11" width="1" height="1" fill="#6DC2CA" />
<rect x="8" y="11" width="1" height="1" fill="#6DC2CA" />
<rect x="9" y="11" width="1" height="1" fill="#6DC2CA" />
<rect x="10" y="11" width="1" height="1" fill="#6DC2CA" />
<rect x="11" y="11" width="1" height="1" fill="#6DC2CA" />
<rect x="12" y="11" width="1" height="1" fill="#6DC2CA" />
<rect x="13" y="11" width="1" height="1" fill="#6DC2CA" />
<rect x="14" y="11" width="1" height="1" fill="#6DC2CA" />
<rect x="15" y="11" width="1" height="1" fill="#6DC2CA" />
<rect x="16" y="11" width="1" height="1" fill="#6DC2CA" />
<rect x="17" y="11" width="1" height="1" fill="#6DC2CA" />
<rect x="18" y="11" width="1" height="1" fill="#6DC2CA" />
<rect x="19" y="11" width="1" height="1" fill="#6DC2CA" />
<rect x="20" y="11" width="1" height="1" fill="#6DC2CA" />
<rect x="21" y="11" width="1" height="1" fill="#6DC2CA" />
<rect x="22" y="11" width="1" height="1" fill="#597DCE" />
<rect x="1" y="12" width="1" height="1" fill="#597DCE" />
<rect x="2" y="12" width="1" height="1" fill="#6DC2CA" />
<rect x="5" y="12" width="1" height="1" fill="#597DCE" />
<rect x="6" y="12" width="1" height="1" fill="#6DC2CA" />
<rect x="7" y="12" width="1" height="1" fill="#6DC2CA" />
<rect x="8" y="12" width="1" height="1" fill="#6DC2CA" />
<rect x="9" y="12" width="1" height="1" fill="#6DC2CA" />
<rect x="10" y="12" width="1" height="1" fill="#6DC2CA" />
<rect x="11" y="12" width="1" height="1" fill="#6DC2CA" />
<rect x="12" y="12" width="1" height="1" fill="#6DC2CA" />
<rect x="13" y="12" width="1" height="1" fill="#6DC2CA" />
<rect x="14" y="12" width="1" height="1" fill="#6DC2CA" />
<rect x="15" y="12" width="1" height="1" fill="#6DC2CA" />
<rect x="16" y="12" width="1" height="1" fill="#6DC2CA" />
<rect x="17" y="12" width="1" height="1" fill="#30346D" />
<rect x="18" y="12" width="1" height="1" fill="#6DC2CA" />
<rect x="19" y="12" width="1" height="1" fill="#442434" />
<rect x="20" y="12" width="1" height="1" fill="#6DC2CA" />
<rect x="21" y="12" width="1" height="1" fill="#442434" />
<rect x="22" y="12" width="1" height="1" fill="#442434" />
<rect x="1" y="13" width="1" height="1" fill="#6DC2CA" />
<rect x="7" y="13" width="1" height="1" fill="#597DCE" />
<rect x="8" y="13" width="1" height="1" fill="#6DC2CA" />
<rect x="9" y="13" width="1" height="1" fill="#6DC2CA" />
<rect x="10" y="13" width="1" height="1" fill="#6DC2CA" />
<rect x="11" y="13" width="1" height="1" fill="#6DC2CA" />
<rect x="12" y="13" width="1" height="1" fill="#6DC2CA" />
<rect x="13" y="13" width="1" height="1" fill="#6DC2CA" />
<rect x="14" y="13" width="1" height="1" fill="#6DC2CA" />
<rect x="15" y="13" width="1" height="1" fill="#6DC2CA" />
<rect x="16" y="13" width="1" height="1" fill="#597DCE" />
<rect x="17" y="13" width="1" height="1" fill="#30346D" />
<rect x="18" y="13" width="1" height="1" fill="#597DCE" />
<rect x="19" y="13" width="1" height="1" fill="#597DCE" />
<rect x="20" y="13" width="1" height="1" fill="#442434" />
<rect x="21" y="13" width="1" height="1" fill="#30346D" />
<rect x="8" y="14" width="1" height="1" fill="#30346D" />
<rect x="14" y="14" width="1" height="1" fill="#6DC2CA" />
<rect x="15" y="14" width="1" height="1" fill="#6DC2CA" />
<rect x="15" y="15" width="1" height="1" fill="#6DC2CA" />
</svg>