<?xml version="1.0" encoding="UTF-8" ?>
<svg version="1.1" width="32" height="32" xmlns="http://www.w3.org/2000/svg">
<rect x="3" y="1" width="1" height="1" fill="#597DCE" />
<rect x="3" y="2" width="1" height="1" fill="#597DCE" />
<rect x="3" y="3" width="1" height="1" fill="#597DCE" />
<rect x="3" y="4" width="1" height="1" fill="#597DCE" />
<rect x="3" y="5" width="1" height="1" fill="#597DCE" />
<rect x="4" y="6" width="1" height="1" fill="#6DC2CA" />
<rect x="4" y="7" width="1" height="1" fill="#597DCE" />
<rect x="4" y="8" width="1" height="1" fill="#597DCE" />
<rect x="5" y="8" width="1" height="1" fill="#6DC2CA" />
<rect x="5" y="9" width="1" height="1" fill="#6DC2CA" />
<rect x="14" y="9" width="1" height="1" fill="#30346D" />
<rect x="5" y="10" width="1" height="1" fill="#6DC2CA" />
<rect x="13" y="10" width="1" height="1" fill="#597DCE" />
<rect x="14" y="10" width="1" height="1" fill="#6DC2CA" />
<rect x="5" y="11" width="1" height="1" fill="#597DCE" />
<rect x="6" y="11" width="1" height="1" fill="#6DC2CA" />
<rect x="7" y="11" width="1" height="1" fill="#6DC2CA" />
<rect x="8" y="11" width="1" height="1" fill="#30346D" />
<rect x="12" y="11" width="1" height="1" fill="#597DCE" />
<rect x="13" y="11" width="1" height="1" fill="#597DCE" />
<rect x="14" y="11" width="1" height="1" fill="#6DC2CA" />
<rect x="4" y="12" width="1" height="1" fill="#597DCE" />
<rect x="6" y="12" width="1" height="1" fill="#597DCE" />
<rect x="7" y="12" width="1" height="1" fill="#6DC2CA" />
<rect x="8" y="12" width="1" height="1" fill="#6DC2CA" />
<rect x="9" y="12" width="1" height="1" fill="#6DC2CA" />
<rect x="10" y="12" width="1" height="1" fill="#6DC2CA" />
<rect x="11" y="12" width="1" height="1" fill="#6DC2CA" />
<rect x="12" y="12" width="1" height="1" fill="#6DC2CA" />
<rect x="13" y="12" width="1" height="1" fill="#6DC2CA" />
<rect x="14" y="12" width="1" height="1" fill="#6DC2CA" />
<rect x="15" y="12" width="1" height="1" fill="#597DCE" />
<rect x="4" y="13" width="1" height="1" fill="#597DCE" />
<rect x="8" y="13" width="1" height="1" fill="#597DCE" />
<rect x="9" y="13" width="1" height="1" fill="#597DCE" />
<rect x="10" y="13" width="1" height="1" fill="#6DC2CA" />
<rect x="11" y="13" width="1" height="1" fill="#6DC2CA" />
<rect x="12" y="13" width="1" height="1" fill="#6DC2CA" />
<rect x="13" y="13" width="1" height="1" fill="#6DC2CA" />
<rect x="14" y="13" width="1" height="1" fill="#6DC2CA" />
<rect x="15" y="13" width="1" height="1" fill="#6DC2CA" />
<rect x="16" y="13" width="1" height="1" fill="#6DC2CA" />
<rect x="17" y="13" width="1" height="1" fill="#6DC2CA" />
<rect x="18" y="13" width="1" height="1" fill="#597DCE" />
<rect x="19" y="13" width="1" height="1" fill="#597DCE" />
<rect x="20" y="13" width="1" height="1" fill="#597DCE" />
<rect x="21" y="13" width="1" height="1" fill="#597DCE" />
<rect x="22" y="13" width="1" height="1" fill="#597DCE" />
<rect x="23" y="13" width="1" height="1" fill="#597DCE" />
<rect x="24" y="13" width="1" height="1" fill="#597DCE" />
<rect x="25" y="13" width="1" height="1" fill="#597DCE" />
<rect x="26" y="13" width="1" height="1" fill="#597DCE" />
<rect x="27" y="13" width="1" height="1" fill="#597DCE" />
<rect x="28" y="13" width="1" height="1" fill="#597DCE" />
<rect x="29" y="13" width="1" height="1" fill="#30346D" />
<rect x="30" y="13" width="1" height="1" fill="#30346D" />
<rect x="8" y="14" width="1" height="1" fill="#597DCE" />
<rect x="10" y="14" width="1" height="1" fill="#597DCE" />
<rect x="11" y="14" width="1" height="1" fill="#6DC2CA" />
<rect x="12" y="14" width="1" height="1" fill="#6DC2CA" />
<rect x="13" y="14" width="1" height="1" fill="#6DC2CA" />
<rect x="14" y="14" width="1" height="1" fill="#6DC2CA" />
<rect x="15" y="14" width="1" height="1" fill="#6DC2CA" />
<rect x="16" y="14" width="1" height="1" fill="#6DC2CA" />
<rect x="17" y="14" width="1" height="1" fill="#6DC2CA" />
<rect x="18" y="14" width="1" height="1" fill="#6DC2CA" />
<rect x="19" y="14" width="1" height="1" fill="#6DC2CA" />
<rect x="20" y="14" width="1" height="1" fill="#6DC2CA" />
<rect x="21" y="14" width="1" height="1" fill="#6DC2CA" />
<rect x="22" y="14" width="1" height="1" fill="#6DC2CA" />
<rect x="23" y="14" width="1" height="1" fill="#6DC2CA" />
<rect x="24" y="14" width="1" height="1" fill="#6DC2CA" />
<rect x="25" y="14" width="1" height="1" fill="#6DC2CA" />
<rect x="26" y="14" width="1" height="1" fill="#6DC2CA" />
<rect x="27" y="14" width="1" height="1" fill="#6DC2CA" />
<rect x="28" y="14" width="1" height="1" fill="#6DC2CA" />
<rect x="29" y="14" width="1" height="1" fill="#6DC2CA" />
<rect x="30" y="14" width="1" height="1" fill="#597DCE" />
<rect x="11" y="15" width="1" height="1" fill="#30346D" />
<rect x="12" y="15" width="1" height="1" fill="#597DCE" />
<rect x="13" y="15" width="1" height="1" fill="#6DC2CA" />
<rect x="14" y="15" width="1" height="1" fill="#6DC2CA" />
<rect x="15" y="15" width="1" height="1" fill="#6DC2CA" />
<rect x="16" y="15" width="1" height="1" fill="#6DC2CA" />
<rect x="17" y="15" width="1" height="1" fill="#6DC2CA" />
<rect x="18" y="15" width="1" height="1" fill="#6DC2CA" />
<rect x="19" y="15" width="1" height="1" fill="#6DC2CA" />
<rect x="20" y="15" width="1" height="1" fill="#6DC2CA" />
<rect x="21" y="15" width="1" height="1" fill="#6DC2CA" />
<rect x="22" y="15" width="1" height="1" fill="#6DC2CA" />
<rect x="23" y="15" width="1" height="1" fill="#6DC2CA" />
<rect x="24" y="15" width="1" height="1" fill="#6DC2CA" />
<rect x="25" y="15" width="1" height="1" fill="#6DC2CA" />
<rect x="26" y="15" width="1" height="1" fill="#6DC2CA" />
<rect x="27" y="15" width="1" height="1" fill="#6DC2CA" />
<rect x="28" y="15" width="1" height="1" fill="#6DC2CA" />
<rect x="29" y="15" width="1" height="1" fill="#597DCE" />
<rect x="13" y="16" width="1" height="1" fill="#30346D" />
<rect x="14" y="16" width="1" height="1" fill="#597DCE" />
<rect x="15" y="16" width="1" height="1" fill="#6DC2CA" />
<rect x="16" y="16" width="1" height="1" fill="#6DC2CA" />
<rect x="17" y="16" width="1" height="1" fill="#6DC2CA" />
<rect x="18" y="16" width="1" height="1" fill="#6DC2CA" />
<rect x="19" y="16" width="1" height="1" fill="#6DC2CA" />
<rect x="20" y="16" width="1" height="1" fill="#6DC2CA" />
<rect x="21" y="16" width="1" height="1" fill="#6DC2CA" />
<rect x="22" y="16" width="1" height="1" fill="#30346D" />
<rect x="23" y="16" width="1" height="1" fill="#30346D" />
<rect x="24" y="16" width="1" height="1" fill="#6DC2CA" />
<rect x="25" y="16" width="1" height="1" fill="#442434" />
<rect x="26" y="16" width="1" height="1" fill="#6DC2CA" />
<rect x="27" y="16" width="1" height="1" fill="#442434" />
<rect x="28" y="16" width="1" height="1" fill="#442434" />
<rect x="16" y="17" width="1" height="1" fill="#30346D" />
<rect x="17" y="17" width="1" height="1" fill="#597DCE" />
<rect x="18" y="17" width="1" height="1" fill="#597DCE" />
<rect x="19" y="17" width="1" height="1" fill="#597DCE" />
<rect x="20" y="17" width="1" height="1" fill="#6DC2CA" />
<rect x="21" y="17" width="1" height="1" fill="#6DC2CA" />
<rect x="22" y="17" width="1" height="1" fill="#30346D" />
<rect x="23" y="17" width="1" height="1" fill="#30346D" />
<rect x="24" y="17" width="1" height="1" fill="#597DCE" />
<rect x="25" y="17" width="1" height="1" fill="#597DCE" />
<rect x="26" y="17" width="1" height="1" fill="#442434" />
<rect x="20" y="18" width="1" height="1" fill="#597DCE" />
<rect x="21" y="18" width="1" height="1" fill="#6DC2CA" />
<rect x="27" y="18" width="1" height="1" fill="#597DCE" />
<rect x="28" y="18" width="1" height="1" fill="#597DCE" />
<rect x="21" y="19" width="1" height="1" fill="#597DCE" />
</svg>