<?xml version="1.0" encoding="UTF-8" ?>
<svg version="1.1" width="8" height="8" xmlns="http://www.w3.org/2000/svg">
<rect x="2" y="0" width="1" height="1" fill="#346524" />
<rect x="3" y="0" width="1" height="1" fill="#346524" />
<rect x="4" y="0" width="1" height="1" fill="#346524" />
<rect x="5" y="0" width="1" height="1" fill="#346524" />
<rect x="1" y="1" width="1" height="1" fill="#346524" />
<rect x="2" y="1" width="1" height="1" fill="#6DAA2C" />
<rect x="3" y="1" width="1" height="1" fill="#6DAA2C" />
<rect x="4" y="1" width="1" height="1" fill="#6DAA2C" />
<rect x="5" y="1" width="1" height="1" fill="#6DAA2C" />
<rect x="6" y="1" width="1" height="1" fill="#346524" />
<rect x="0" y="2" width="1" height="1" fill="#6DAA2C" />
<rect x="1" y="2" width="1" height="1" fill="#6DAA2C" />
<rect x="2" y="2" width="1" height="1" fill="#346524" />
<rect x="3" y="2" width="1" height="1" fill="#6DAA2C" />
<rect x="4" y="2" width="1" height="1" fill="#6DAA2C" />
<rect x="5" y="2" width="1" height="1" fill="#6DAA2C" />
<rect x="6" y="2" width="1" height="1" fill="#6DAA2C" />
<rect x="7" y="2" width="1" height="1" fill="#346524" />
<rect x="0" y="3" width="1" height="1" fill="#6DAA2C" />
<rect x="1" y="3" width="1" height="1" fill="#442434" />
<rect x="2" y="3" width="1" height="1" fill="#346524" />
<rect x="3" y="3" width="1" height="1" fill="#346524" />
<rect x="4" y="3" width="1" height="1" fill="#DAD45E" />
<rect x="5" y="3" width="1" height="1" fill="#DAD45E" />
<rect x="6" y="3" width="1" height="1" fill="#346524" />
<rect x="7" y="3" width="1" height="1" fill="#6DAA2C" />
<rect x="2" y="4" width="1" height="1" fill="#346524" />
<rect x="3" y="4" width="1" height="1" fill="#346524" />
<rect x="6" y="4" width="1" height="1" fill="#346524" />
<rect x="2" y="5" width="1" height="1" fill="#346524" />
<rect x="3" y="5" width="1" height="1" fill="#346524" />
<rect x="6" y="5" width="1" height="1" fill="#346524" />
<rect x="2" y="6" width="1" height="1" fill="#346524" />
</svg>