<?xml version="1.0" encoding="UTF-8" ?>
<svg version="1.1" width="8" height="8" xmlns="http://www.w3.org/2000/svg">
<rect x="1" y="1" width="1" height="1" fill="#597DCE" />
<rect x="0" y="2" width="1" height="1" fill="#6DC2CA" />
<rect x="4" y="2" width="1" height="1" fill="#597DCE" />
<rect x="0" y="3" width="1" height="1" fill="#6DC2CA" />
<rect x="3" y="3" width="1" height="1" fill="#597DCE" />
<rect x="4" y="3" width="1" height="1" fill="#6DC2CA" />
<rect x="0" y="4" width="1" height="1" fill="#597DCE" />
<rect x="1" y="4" width="1" height="1" fill="#6DC2CA" />
<rect x="2" y="4" width="1" height="1" fill="#6DC2CA" />
<rect x="3" y="4" width="1" height="1" fill="#6DC2CA" />
<rect x="4" y="4" width="1" height="1" fill="#6DC2CA" />
<rect x="5" y="4" width="1" height="1" fill="#6DC2CA" />
<rect x="6" y="4" width="1" height="1" fill="#30346D" />
<rect x="7" y="4" width="1" height="1" fill="#6DC2CA" />
<rect x="2" y="5" width="1" height="1" fill="#597DCE" />
<rect x="3" y="5" width="1" height="1" fill="#6DC2CA" />
<rect x="4" y="5" width="1" height="1" fill="#6DC2CA" />
<rect x="5" y="5" width="1" height="1" fill="#6DC2CA" />
<rect x="6" y="5" width="1" height="1" fill="#6DC2CA" />
<rect x="7" y="5" width="1" height="1" fill="#597DCE" />
<rect x="5" y="6" width="1" height="1" fill="#6DC2CA" />
</svg>